<?xml version="1.0" encoding="UTF-8"?>
<svg width="190px" height="58px" viewBox="0 0 190 58" version="1.1" xmlns="http://www.w3.org/2000/svg" xmlns:xlink="http://www.w3.org/1999/xlink">
    <!-- Generator: Sketch 51.2 (57519) - http://www.bohemiancoding.com/sketch -->
    <title>Any Browser</title>
    <desc>Created with Sketch.</desc>
    <defs></defs>
    <g id="App" stroke="none" stroke-width="1" fill="none" fill-rule="evenodd">
        <g id="Site-One" transform="translate(-1229.000000, -4827.000000)" fill="#FFFFFF" fill-rule="nonzero">
            <g id="Group-2" transform="translate(300.000000, 1362.752941)">
                <g id="Everywhere" transform="translate(0.000000, 3270.752941)">
                    <g id="Any-Browser" transform="translate(848.000000, 110.000000)">
                        <g transform="translate(81.000000, 84.000000)" id="Shape">
                            <path d="M136.958333,25.3066855 C136.972393,25.2861655 136.987467,25.2657722 137.001653,25.2452522 C136.998993,25.2657722 136.995953,25.2861655 136.99342,25.3066855 L136.958333,25.3066855 Z M189.887076,27.0831611 C189.887076,22.023022 188.99599,17.3764784 186.577277,13.0164293 C181.867068,4.58282576 173.525515,6.25515775e-05 163.755167,6.25515775e-05 C147.674355,-0.0317701735 138.67098,12.0910968 136.997636,25.2453671 C141.873559,18.1994175 150.451616,11.2968876 162.323039,10.8843263 C162.323039,10.8843263 174.925811,10.8843263 173.74823,22.9459412 L153.539276,22.9459412 C154.271199,18.6495576 155.671494,16.1672945 157.485499,13.875798 C148.861014,17.8856871 143.482548,24.9191104 143.609879,35.5168796 C143.705262,43.7276541 149.370108,52.1613726 157.485614,55.2802902 C167.064966,58.9401342 179.639352,56.1077112 185.081484,52.8297449 L185.081484,40.8316806 C175.788627,47.3239476 153.953101,47.8331563 153.794053,33.0663344 L189.887191,33.0663344 L189.887191,27.0831611 L189.887076,27.0831611 Z"></path>
                            <path d="M95.1800403,28.5919355 C95.1800403,27.5461694 95.9385081,26.5578629 97.0532258,26.5578629 C98.0760081,26.5578629 99.0528226,27.2933468 99.0528226,28.4080645 C99.0528226,29.4538306 98.3173387,30.4421371 97.202621,30.4421371 C96.1683468,30.4421371 95.1800403,29.6721774 95.1800403,28.5919355 Z M125.875,28.5 C125.875,44.2439516 113.118952,57 97.375,57 C81.6310484,57 68.875,44.2439516 68.875,28.5 C68.875,12.7560484 81.6310484,0 97.375,0 C113.118952,0 125.875,12.7560484 125.875,28.5 Z M122.818145,28.5 C122.818145,14.4453629 111.429637,3.05685484 97.375,3.05685484 C83.3203629,3.05685484 71.9318548,14.4453629 71.9318548,28.5 C71.9318548,42.5546371 83.3203629,53.9431452 97.375,53.9431452 C111.429637,53.9431452 122.818145,42.5546371 122.818145,28.5 Z M114.486492,39.6012097 C114.486492,40.0149194 115.980444,40.7733871 116.359677,41.0032258 C113.210887,45.772379 108.338306,49.2084677 102.810685,50.5760081 L102.30504,48.45 C102.270565,48.1627016 102.086694,48.1282258 101.822379,48.1282258 C101.604032,48.1282258 101.477621,48.45 101.500605,48.6108871 L102.00625,50.771371 C100.477823,51.0931452 98.9264113,51.2540323 97.3635081,51.2540323 C93.1919355,51.2540323 89.0893145,50.0818548 85.5268145,47.909879 C85.7221774,47.5881048 86.9288306,45.8413306 86.9288306,45.5885081 C86.9288306,45.3701613 86.7334677,45.1747984 86.515121,45.1747984 C86.0669355,45.1747984 85.1131048,47.0824597 84.8258065,47.4616935 C80.0221774,44.2784274 76.5516129,39.3483871 75.2185484,33.7173387 L77.4135081,33.2346774 C77.6663306,33.1657258 77.7352823,32.9818548 77.7352823,32.7520161 C77.7352823,32.5336694 77.4135081,32.4072581 77.2296371,32.4302419 L75.0806452,32.9243952 C74.7933468,31.4649194 74.6324597,29.9939516 74.6324597,28.5 C74.6324597,24.2364919 75.8391129,20.0419355 78.1030242,16.4449597 C78.4247984,16.6403226 79.9532258,17.6860887 80.2060484,17.6860887 C80.4243952,17.6860887 80.6197581,17.5252016 80.6197581,17.3068548 C80.6197581,16.8586694 78.9304435,16.0082661 78.5512097,15.7439516 C81.7919355,11.0092742 86.7219758,7.59616935 92.3185484,6.33205645 L92.8012097,8.45806452 C92.8701613,8.7108871 93.0540323,8.77983871 93.283871,8.77983871 C93.5137097,8.77983871 93.628629,8.45806452 93.6056452,8.27419355 L93.1229839,6.17116935 C94.525,5.91834677 95.95,5.75745968 97.3864919,5.75745968 C101.65,5.75745968 105.810081,6.9641129 109.441532,9.22802419 C109.223185,9.54979839 108.200403,11.04375 108.200403,11.2965726 C108.200403,11.5149194 108.36129,11.7102823 108.579637,11.7102823 C109.027823,11.7102823 109.878226,10.0554435 110.108065,9.67620968 C114.819758,12.8594758 118.186895,17.7205645 119.496976,23.2596774 L117.715726,23.6389113 C117.428427,23.7078629 117.393952,23.8917339 117.393952,24.1445565 C117.393952,24.3629032 117.715726,24.4893145 117.876613,24.4663306 L119.692339,24.052621 C119.979637,25.5120968 120.140524,27.0060484 120.140524,28.5 C120.140524,32.6715726 118.991331,36.7741935 116.830847,40.3022177 C116.509073,40.1413306 115.176008,39.1875 114.923185,39.1875 C114.681855,39.1875 114.486492,39.3828629 114.486492,39.6012097 Z M110.671169,11.7677419 C109.177218,13.1697581 95.2489919,25.9832661 94.8582661,26.6497984 L83.7570565,45.0943548 C85.2165323,43.7268145 99.1792339,30.8443548 99.5354839,30.2352823 L110.671169,11.7677419 Z"></path>
                            <path d="M15.1127175,24.0776137 L6.33240104,10.5853472 C11.80286,3.78175117 20.0085485,0.0351763278 28.3981179,0.000698645222 C33.2594712,-0.0337790374 38.2242575,1.20741754 42.7408339,3.81622885 C47.7286053,6.71235419 51.5211504,10.8726612 53.9345882,15.6535666 L30.3403607,14.41237 C23.6631828,14.0216229 17.3077967,17.7796903 15.1127175,24.0776137 Z M18.8937701,28.5022496 C18.8937701,33.8118127 23.1919878,38.1100305 28.501551,38.1100305 C33.8111141,38.1100305 38.1093318,33.8118127 38.1093318,28.5022496 C38.1093318,23.1926865 33.8111141,18.8944687 28.501551,18.8944687 C23.1919878,18.8944687 18.8937701,23.1811939 18.8937701,28.5022496 Z M55.0838443,18.2508853 L39.0287367,19.0783497 C43.3844173,24.1695542 43.4533726,31.5133006 39.7872457,37.1446554 L26.904085,56.9578303 C32.2481258,57.2451443 37.7530625,56.0729031 42.7408339,53.1767778 C55.0838443,46.0513901 60.0831082,31.1110609 55.0838443,18.2508853 Z M15.3655539,33.9727086 L4.64299459,12.8838594 C1.71239157,17.3659581 0,22.7444766 0,28.5022496 C0,42.7530251 10.4352453,54.5558851 24.076915,56.6475312 L31.3976763,42.3048152 C24.7779612,43.5460118 18.3880974,39.9143625 15.3655539,33.9727086 Z"></path>
                        </g>
                    </g>
                </g>
            </g>
        </g>
    </g>
</svg>