<?xml version="1.0" encoding="UTF-8"?>
<svg width="190px" height="58px" viewBox="0 0 190 58" version="1.1" xmlns="http://www.w3.org/2000/svg" xmlns:xlink="http://www.w3.org/1999/xlink">
    <!-- Generator: Sketch 51.2 (57519) - http://www.bohemiancoding.com/sketch -->
    <title>Any Platform</title>
    <desc>Created with Sketch.</desc>
    <defs></defs>
    <g id="App" stroke="none" stroke-width="1" fill="none" fill-rule="evenodd">
        <g id="Site-One" transform="translate(-805.000000, -4827.000000)" fill="#FFFFFF" fill-rule="nonzero">
            <g id="Group-2" transform="translate(300.000000, 1362.752941)">
                <g id="Everywhere" transform="translate(0.000000, 3270.752941)">
                    <g id="Any-Platform" transform="translate(424.000000, 110.000000)">
                        <g transform="translate(81.000000, 84.000000)">
                            <path d="M38.9943333,30.2792143 C39.0757619,38.9086071 46.563119,41.7789643 46.6465833,41.8156071 C46.5814405,42.0171429 45.4495833,45.9053571 42.7034048,49.9218214 C40.3256905,53.3927143 37.8604405,56.8534286 33.9742619,56.9246786 C30.1593333,56.9959286 28.9317976,54.663 24.5692619,54.663 C20.2087619,54.663 18.8427976,56.8534286 15.2314405,56.9959286 C11.479619,57.1384286 8.62758333,53.2400357 6.2295119,49.7813571 C1.33565476,42.7052143 -2.4059881,29.7845357 2.61611905,21.0635357 C5.11394048,16.7315357 9.57215476,13.9894286 14.4130833,13.9181786 C18.0936548,13.8489643 21.568619,16.3956429 23.8180833,16.3956429 C26.0695833,16.3956429 30.2916548,13.3318929 34.7295119,13.7838214 C36.588119,13.8611786 41.8056548,14.5329643 45.1544048,19.437 C44.8856905,19.6039286 38.9332619,23.07075 38.9943333,30.2792143 M31.8225119,9.10167857 C33.8134405,6.69139286 35.1529405,3.33653571 34.7865119,0 C31.9181905,0.116035714 28.4493333,1.91153571 26.3932619,4.31978571 C24.5489048,6.45117857 22.9305119,9.86507143 23.3661548,13.1364643 C26.5642619,13.3848214 29.8315833,11.5119643 31.8225119,9.10167857" id="Shape"></path>
                            <g id="Group" transform="translate(64.351190, 0.000000)">
                                <path d="M49.3640357,36.7629643 C49.3640357,38.7152143 47.78025,40.3010357 45.8259643,40.3010357 C43.8716786,40.3010357 42.2878929,38.7152143 42.2878929,36.7629643 L42.2878929,22.1770714 C42.2878929,20.2227857 43.8716786,18.639 45.8259643,18.639 C47.78025,18.639 49.3640357,20.2227857 49.3640357,22.1770714 L49.3640357,36.7629643 Z" id="Shape"></path>
                                <path d="M41.0786786,19.1743929 L41.0786786,41.9397857 C41.0786786,44.0345357 39.3788571,45.7384286 37.2820714,45.7384286 L34.7801786,45.7384286 L34.7801786,53.4619286 C34.7801786,55.4162143 33.1943571,57 31.2400714,57 C29.2878214,57 27.702,55.4162143 27.702,53.4619286 L27.702,45.7384286 L23.04225,45.7384286 L23.04225,53.4619286 C23.04225,55.4162143 21.4584643,57 19.5041786,57 C17.5498929,57 15.9661071,55.4162143 15.9661071,53.4619286 L15.9661071,45.7384286 L13.4621786,45.7384286 C11.3653929,45.7384286 9.66557143,44.0345357 9.66557143,41.9397857 L9.66557143,19.1743929 L41.0786786,19.1743929 Z" id="Shape"></path>
                                <path d="M8.37085714,36.7202143 C8.37085714,38.6745 6.78707143,40.2542143 4.83278571,40.2542143 C2.8785,40.2542143 1.29471429,38.6745 1.29471429,36.7202143 L1.29471429,22.1343214 C1.29471429,20.1800357 2.8785,18.59625 4.83278571,18.59625 C6.78707143,18.59625 8.37085714,20.1800357 8.37085714,22.1343214 L8.37085714,36.7202143 Z" id="Shape"></path>
                                <path d="M35.0753571,0 C35.3094643,0.0223928571 35.2137857,-0.00610714286 35.3705357,0.0610714286 C35.6229643,0.197464286 35.7166071,0.510964286 35.5802143,0.763392857 L33.0885,5.358 C38.00475,7.76217857 40.7936786,12.5664643 41.0786786,17.9305714 L9.66557143,17.9305714 C9.77957143,12.6458571 12.8616429,7.67871429 17.6720357,5.38446429 L15.1660714,0.763392857 C15.0296786,0.510964286 15.1212857,0.197464286 15.3737143,0.0610714286 C15.5325,-0.00610714286 15.4347857,0.0223928571 15.6709286,0 C15.8561786,0.0264642857 15.97425,0.120107143 16.0760357,0.268714286 L18.6064286,4.93660714 C20.7235714,3.95132143 23.0565,3.55232143 25.3731429,3.45053571 C27.6796071,3.51567857 30.0573214,3.89635714 32.1541071,4.90810714 L34.67025,0.268714286 C34.7577857,0.09975 34.9043571,0.0508928571 35.0753571,0 Z M32.6223214,9.55971429 C31.8976071,9.55971429 31.3092857,10.146 31.3092857,10.8707143 C31.3092857,11.5954286 31.8976071,12.18375 32.6223214,12.18375 C33.3470357,12.18375 33.9333214,11.5954286 33.9333214,10.8707143 C33.9333214,10.146 33.3470357,9.55971429 32.6223214,9.55971429 Z M18.1239643,9.55971429 C17.39925,9.55971429 16.8109286,10.146 16.8109286,10.8707143 C16.8109286,11.5954286 17.39925,12.18375 18.1239643,12.18375 C18.8466429,12.18375 19.4349643,11.5954286 19.4349643,10.8707143 C19.4349643,10.146 18.8466429,9.55971429 18.1239643,9.55971429 Z" id="Shape"></path>
                            </g>
                            <path d="M132.714548,8.06957143 L155.937976,4.90810714 L155.948155,27.3070714 L132.73694,27.4393929 L132.714548,8.06957143 Z M155.927798,29.8883571 L155.946119,52.3076786 L132.734905,49.1156786 L132.730833,29.7377143 L155.927798,29.8883571 Z M158.741155,4.49485714 L189.531333,0 L189.531333,27.0220714 L158.741155,27.2683929 L158.741155,4.49485714 Z M189.539476,30.1000714 L189.531333,57 L158.741155,52.6517143 L158.698405,30.0491786 L189.539476,30.1000714 Z" id="path13"></path>
                        </g>
                    </g>
                </g>
            </g>
        </g>
    </g>
</svg>