<?xml version="1.0" encoding="UTF-8"?>
<svg width="178px" height="58px" viewBox="0 0 178 58" version="1.1" xmlns="http://www.w3.org/2000/svg" xmlns:xlink="http://www.w3.org/1999/xlink">
    <!-- Generator: Sketch 51.2 (57519) - http://www.bohemiancoding.com/sketch -->
    <title>Any Device</title>
    <desc>Created with Sketch.</desc>
    <defs></defs>
    <g id="App" stroke="none" stroke-width="1" fill="none" fill-rule="evenodd">
        <g id="Site-One" transform="translate(-387.000000, -4827.000000)" fill="#FFFFFF" fill-rule="nonzero">
            <g id="Group-2" transform="translate(300.000000, 1362.752941)">
                <g id="Everywhere" transform="translate(0.000000, 3270.752941)">
                    <g id="Any-Device" transform="translate(0.000000, 110.000000)">
                        <g transform="translate(87.000000, 84.000000)" id="Shape">
                            <path d="M75.7308333,7.86192857 C77.0560833,7.86192857 78.126869,8.93475 78.126869,10.2579643 L78.126869,53.3011071 C78.126869,53.6858571 78.0393333,54.0706071 77.8520476,54.4105714 L86.0030476,54.4105714 L86.0030476,55.9088571 C86.0030476,55.9088571 85.0421905,56.52975 84.4620119,56.658 C83.8859048,56.7882857 83.028869,56.95725 82.3224762,56.9776071 C81.6812262,56.9959286 81.0399762,57 80.3966905,57 L6.1297619,57 C5.48036905,56.9959286 4.83097619,56.9959286 4.18158333,56.9776071 C3.47519048,56.95725 2.62019048,56.7882857 2.0400119,56.658 C1.46594048,56.52975 0.501011905,55.9088571 0.501011905,55.9088571 L0.501011905,54.4105714 L8.7375119,54.4105714 C8.54615476,54.0706071 8.47083333,53.6858571 8.46269048,53.3011071 L8.46269048,10.2579643 C8.46269048,8.93475 9.53347619,7.86192857 10.8587262,7.86192857 L75.7308333,7.86192857 Z M75.7308333,10.7689286 L10.7711905,10.7689286 L10.7711905,51.3305357 L75.7308333,51.3305357 L75.7308333,10.7689286 Z"></path>
                            <path d="M138.646619,0 C140.134726,0 141.350048,1.21532143 141.350048,2.70342857 L141.350048,54.2965714 C141.350048,55.7826429 140.134726,57 138.646619,57 L105.727083,57 C104.238976,57 103.023655,55.7826429 103.023655,54.2965714 L103.023655,2.70342857 C103.023655,1.21532143 104.238976,0 105.727083,0 L138.646619,0 Z M122.185833,52.6232143 C121.385798,52.6232143 120.736405,53.2726071 120.736405,54.0706071 C120.736405,54.87675 121.385798,55.5220714 122.185833,55.5220714 C122.987905,55.5220714 123.637298,54.87675 123.637298,54.0706071 C123.637298,53.2726071 122.987905,52.6232143 122.185833,52.6232143 Z M139.26344,5.57989286 L105.199833,5.57989286 C105.085833,5.57989286 104.990155,5.67557143 104.990155,5.78957143 L104.990155,51.1982143 C104.990155,51.3122143 105.085833,51.4017857 105.199833,51.4017857 L139.26344,51.4017857 C139.37744,51.4017857 139.473119,51.3122143 139.473119,51.1982143 L139.473119,5.78957143 C139.473119,5.67557143 139.37744,5.57989286 139.26344,5.57989286 Z M122.175655,2.63217857 C121.953762,2.63217857 121.772583,2.81335714 121.772583,3.03525 C121.772583,3.25917857 121.953762,3.44035714 122.175655,3.44035714 C122.397548,3.44035714 122.578726,3.25917857 122.578726,3.03525 C122.578726,2.81335714 122.397548,2.63217857 122.175655,2.63217857 Z M121.017333,2.87442857 C120.913512,2.87442857 120.828012,2.95992857 120.828012,3.06375 C120.828012,3.16960714 120.913512,3.25307143 121.017333,3.25307143 C121.12319,3.25307143 121.20869,3.16960714 121.20869,3.06375 C121.20869,2.95992857 121.12319,2.87442857 121.017333,2.87442857 Z"></path>
                            <path d="M174.41819,24.5690357 C175.78619,24.5690357 176.89769,25.63575 176.89769,26.94675 L176.89769,31.4762143 L177.003548,31.4762143 L177.003548,31.47825 L177.058512,31.5413571 L177.058512,33.8233929 L177.003548,33.8824286 L176.89769,33.8824286 L176.89769,54.62025 C176.89769,55.93125 175.78619,57 174.41819,57 L162.991726,57 C161.62169,57 160.51019,55.93125 160.51019,54.62025 L160.51019,36.8464286 L160.404333,36.8464286 L160.349369,36.77925 L160.349369,34.5012857 L160.404333,34.4381786 L160.51019,34.4381786 L160.51019,33.8620714 L160.404333,33.8620714 L160.349369,33.7969286 L160.349369,31.5169286 L160.404333,31.4538214 L160.404333,31.4578929 L160.51019,31.4578929 L160.51019,29.9535 L160.451155,29.9535 L160.420619,29.9188929 L160.420619,28.7157857 L160.451155,28.6791429 L160.51019,28.6791429 L160.51019,26.94675 C160.51019,25.63575 161.62169,24.5690357 162.991726,24.5690357 L174.41819,24.5690357 Z M168.705976,53.6960357 C167.995512,53.6960357 167.419405,54.2477143 167.419405,54.9317143 C167.419405,55.6136786 167.995512,56.1653571 168.705976,56.1653571 C169.414405,56.1653571 169.990512,55.6136786 169.990512,54.9317143 C169.990512,54.2477143 169.414405,53.6960357 168.705976,53.6960357 Z M168.705976,53.8161429 C169.34519,53.8161429 169.866333,54.3148929 169.866333,54.9317143 C169.866333,55.5465 169.34519,56.04525 168.705976,56.04525 C168.06269,56.04525 167.541548,55.5465 167.541548,54.9317143 C167.541548,54.3148929 168.06269,53.8161429 168.705976,53.8161429 Z M175.853369,28.5244286 L161.458833,28.5244286 L161.458833,53.0446071 L175.853369,53.0446071 L175.853369,28.5244286 Z M166.092119,26.3441786 C165.93944,26.3441786 165.813226,26.46225 165.813226,26.6088214 C165.813226,26.7574286 165.93944,26.8734643 166.092119,26.8734643 C166.244798,26.8734643 166.371012,26.7574286 166.371012,26.6088214 C166.371012,26.46225 166.244798,26.3441786 166.092119,26.3441786 Z M169.902976,26.46225 L167.541548,26.46225 C167.458083,26.46225 167.386833,26.5294286 167.386833,26.6088214 C167.386833,26.69025 167.458083,26.7574286 167.541548,26.7574286 L169.902976,26.7574286 C169.984405,26.7574286 170.055655,26.69025 170.055655,26.6088214 C170.055655,26.5294286 169.984405,26.46225 169.902976,26.46225 Z"></path>
                        </g>
                    </g>
                </g>
            </g>
        </g>
    </g>
</svg>