<?xml version="1.0" encoding="UTF-8"?>
<svg width="154px" height="155px" viewBox="0 0 154 155" version="1.1" xmlns="http://www.w3.org/2000/svg" xmlns:xlink="http://www.w3.org/1999/xlink">
    <!-- Generator: Sketch 51.2 (57519) - http://www.bohemiancoding.com/sketch -->
    <title>Calander Approach</title>
    <desc>Created with Sketch.</desc>
    <defs></defs>
    <g id="App" stroke="none" stroke-width="1" fill="none" fill-rule="evenodd">
        <g id="Site-One" transform="translate(-511.000000, -1363.000000)" fill-rule="nonzero">
            <g id="Group-2" transform="translate(300.000000, 1362.752941)">
                <g id="Calander-Approach" transform="translate(211.000000, 0.752941)">
                    <path d="M11.0887701,0 L110.887701,0 C117.014246,0 121.976471,4.9622246 121.976471,11.0887701 L121.976471,110.887701 C121.976471,117.008702 117.014246,121.976471 110.887701,121.976471 L11.0887701,121.976471 C4.9622246,121.976471 0,117.008702 0,110.887701 L0,11.0887701 C0,4.9622246 4.9622246,0 11.0887701,0 Z M11.0887701,91.022169 L11.0887701,110.887701 L39.7366075,110.887701 L39.7366075,91.022169 L11.0887701,91.022169 Z M76.6954781,91.022169 L45.2809925,91.022169 L45.2809925,110.887701 L76.6954781,110.887701 L76.6954781,91.022169 Z M110.887701,91.022169 L82.2398631,91.022169 L82.2398631,110.887701 L110.887701,110.887701 L110.887701,91.022169 Z M110.887701,85.477784 L110.887701,61.4484193 L82.2398631,61.4484193 L82.2398631,85.477784 L110.887701,85.477784 Z M11.0887701,61.4484193 L11.0887701,85.477784 L39.7366075,85.477784 L39.7366075,61.4484193 L11.0887701,61.4484193 Z M76.6954781,61.4484193 L45.2809925,61.4484193 L45.2809925,85.477784 L76.6954781,85.477784 L76.6954781,61.4484193 Z M110.887701,55.9040342 L110.887701,33.2663102 L82.2398631,33.2663102 L82.2398631,55.9040342 L110.887701,55.9040342 Z M39.7366075,33.2663102 L11.0887701,33.2663102 L11.0887701,55.9040342 L39.7366075,55.9040342 L39.7366075,33.2663102 Z M76.6954781,33.2663102 L45.2809925,33.2663102 L45.2809925,55.9040342 L76.6954781,55.9040342 L76.6954781,33.2663102 Z" id="Shape" fill="#D7D9D9"></path>
                    <path d="M132.136993,113.505882 L145.941229,127.310119 C150.01983,131.392041 150.01983,138.006404 145.939791,142.086443 L142.086443,145.939791 C138.006164,150.02007 131.388959,150.02007 127.30868,145.939791 L113.505882,132.136993 L99.7030847,145.939791 C95.6228055,150.02007 89.0056009,150.02007 84.9253217,145.939791 L81.0705354,142.085004 C76.9919347,138.003082 76.9919347,131.388719 81.0719741,127.30868 L94.8747718,113.505882 L81.0705354,99.7016455 C76.9919347,95.6197234 76.9919347,89.0053611 81.0719741,84.9253217 L84.926761,81.0705354 C89.0086831,76.9919347 95.6230453,76.9919347 99.7030847,81.0719741 L113.505882,94.8747718 L127.310119,81.0705354 C131.392041,76.9919347 138.006404,76.9919347 142.086443,81.0719741 L145.941229,84.926761 C150.01983,89.0086831 150.01983,95.6230453 145.939791,99.7030847 L132.136993,113.505882 Z" id="Shape" stroke="#FFFFFF" stroke-width="10" fill="#E06B6B"></path>
                </g>
            </g>
        </g>
    </g>
</svg>