<?xml version="1.0" encoding="UTF-8"?>
<svg width="207px" height="155px" viewBox="0 0 207 155" version="1.1" xmlns="http://www.w3.org/2000/svg" xmlns:xlink="http://www.w3.org/1999/xlink">
    <!-- Generator: Sketch 51.2 (57519) - http://www.bohemiancoding.com/sketch -->
    <title>Flexible Way</title>
    <desc>Created with Sketch.</desc>
    <defs></defs>
    <g id="App" stroke="none" stroke-width="1" fill="none" fill-rule="evenodd">
        <g id="Site-One" transform="translate(-1120.000000, -1363.000000)" fill-rule="nonzero">
            <g id="Group-2" transform="translate(300.000000, 1362.752941)">
                <g id="Flexible-Way" transform="translate(820.000000, 0.752941)">
                    <path d="M15.6981176,75.3331765 L50.2873412,75.3331765 L50.2873412,106.729412 L15.6981176,106.729412 C7.02635294,106.729412 0,99.7030588 0,91.0312941 C0,82.3595294 7.02635294,75.3331765 15.6981176,75.3331765 Z M56.5665882,75.3331765 L106.853929,75.3331765 L106.853929,106.729412 L56.5665882,106.729412 L56.5665882,75.3331765 Z M113.124282,75.3331765 L147.7224,75.3331765 C156.394165,75.3331765 163.420518,82.3595294 163.420518,91.0312941 C163.420518,99.7030588 156.394165,106.729412 147.7224,106.729412 L113.124282,106.729412 L113.124282,75.3331765 Z M72.2291294,37.6754824 L106.853929,37.6754824 L106.853929,69.0539294 L71.1084706,69.0539294 C62.4544941,69.0539294 56.5665882,62.0275765 56.5665882,53.3647059 C56.5665882,44.7018353 63.5751529,37.6754824 72.2291294,37.6754824 Z M113.124282,37.6754824 L147.757976,37.6754824 C156.403059,37.6754824 163.420518,44.7018353 163.420518,53.3647059 C163.420518,62.0275765 156.403059,69.0539294 147.757976,69.0539294 L113.124282,69.0539294 L113.124282,37.6754824 Z M129.347153,0 L147.766871,0 C156.411953,0 163.420518,7.02635294 163.420518,15.6981176 C163.420518,24.3698824 156.411953,31.3962353 147.766871,31.3962353 L129.347153,31.3962353 C120.702071,31.3962353 113.693506,24.3698824 113.693506,15.6981176 C113.693506,7.02635294 120.702071,0 129.347153,0 Z" id="Combined-Shape" fill="#D7D9D9"></path>
                    <path d="M138.580993,146.307036 L112.014461,119.740505 C108.465797,116.191841 108.465797,110.438304 112.014412,106.889334 L117.794277,101.10931 C121.34301,97.5602213 127.097116,97.5602213 130.645657,101.109117 L145.006666,115.469997 L179.803523,80.6732846 C183.352216,77.1245914 189.10605,77.1245914 192.654792,80.6733334 L198.434735,86.4534366 C201.983399,90.0021003 201.983399,95.7556378 198.434741,99.3046504 L151.432107,146.307444 C147.883216,149.855981 142.129621,149.855906 138.580993,146.307036 Z" id="Shape" stroke="#FFFFFF" stroke-width="10" fill="#7CB27C"></path>
                </g>
            </g>
        </g>
    </g>
</svg>