<?xml version="1.0" encoding="UTF-8"?>
<svg width="61px" height="62px" viewBox="0 0 61 62" version="1.1" xmlns="http://www.w3.org/2000/svg" xmlns:xlink="http://www.w3.org/1999/xlink">
    <!-- Generator: Sketch 51.2 (57519) - http://www.bohemiancoding.com/sketch -->
    <title>Shape</title>
    <desc>Created with Sketch.</desc>
    <defs></defs>
    <g id="App" stroke="none" stroke-width="1" fill="none" fill-rule="evenodd">
        <g id="Site-One" transform="translate(-594.000000, -1686.000000)" fill="#E06B6B" fill-rule="nonzero">
            <g id="Group-2" transform="translate(300.000000, 1362.752941)">
                <path d="M336.065925,354.258824 L353.404257,336.920492 C355.531914,334.792834 355.531914,331.343187 353.404257,329.213797 L349.550909,325.360449 C347.423251,323.232791 343.973604,323.232791 341.844214,325.360449 L324.505882,342.698781 L307.167551,325.360449 C305.039893,323.232791 301.590246,323.232791 299.460856,325.360449 L295.607508,329.213797 C293.47985,331.341455 293.47985,334.791102 295.607508,336.920492 L312.94584,354.258824 L295.607508,371.597155 C293.47985,373.724813 293.47985,377.17446 295.607508,379.30385 L299.460856,383.157198 C301.588513,385.284856 305.039893,385.284856 307.167551,383.157198 L324.505882,365.818866 L341.844214,383.157198 C343.971872,385.284856 347.423251,385.284856 349.550909,383.157198 L353.404257,379.30385 C355.531914,377.176193 355.531914,373.726545 353.404257,371.597155 L336.065925,354.258824 Z" id="Shape"></path>
            </g>
        </g>
    </g>
</svg>